<?xml version="1.0" encoding="utf-8"?>
<!-- Generator: Adobe Illustrator 15.0.0, SVG Export Plug-In . SVG Version: 6.00 Build 0)  -->
<!DOCTYPE svg PUBLIC "-//W3C//DTD SVG 1.1//EN" "http://www.w3.org/Graphics/SVG/1.1/DTD/svg11.dtd">
<svg version="1.1" id="Layer_1" xmlns="http://www.w3.org/2000/svg" xmlns:xlink="http://www.w3.org/1999/xlink" x="0px" y="0px"
	 width="300px" height="44px" viewBox="0 0 300 44" enable-background="new 0 0 300 44" xml:space="preserve">
<g>
	<g>
		<path fill-rule="evenodd" clip-rule="evenodd" fill="#00A2FF" d="M70.452,26.761l-1.998,1.151v2.299l1.998,1.144l2-1.144v-2.299
			L70.452,26.761z M0,11.167v15.292l5.573-3.154v-8.678l13.573-8.009l13.311,7.657v8.676l5.576,3.189V10.847L19.146,0L0,11.167z
			 M5.578,29.7v6.635L19,44l13.473-7.724v-6.633L19,37.357L5.578,29.7z M23.205,24.569v-4.244l-3.7-2.122l-3.699,2.122v4.244
			l3.699,2.12L23.205,24.569z"/>
	</g>
</g>
<path fill="#FFFFFF" d="M67.949,11.124h5.001l10.642,21.628h-5.415L70.474,16.86l-7.746,15.892h-5.401L67.949,11.124z"/>
<path fill="#FFFFFF" d="M119.189,18.21l-8.322,10.958h-0.957l-8.146-10.996l-1.345-7.492l2.415-0.013l7.662,11.49l7.996-11.433
	h5.524L119.189,18.21z"/>
<path fill="#FFFFFF" d="M162.396,28.979c-2.627,2.587-6.02,3.787-9.714,3.787c-9.5,0-13.521-4.563-13.559-11.16
	c-0.021-6.64,4.316-11.449,13.559-11.449c3.478,0,6.759,1.307,9.392,3.883l-3.211,3.087c-1.686-1.625-3.961-2.396-6.181-2.396
	c-6.172,0-8.837,2.637-8.808,6.875c0.036,4.209,2.494,6.649,8.808,6.649c2.22,0,4.747-0.905,6.423-2.577L162.396,28.979z"/>
<path fill="#FFFFFF" d="M189.703,25.669c4.852-0.995,6.462-3.531,6.462-7.02c0-4.394-3.175-7.867-9.198-7.91
	c-4.056,0-6.792-0.03-10.859-0.03l2.589,4.582h8.271c3.027,0,4.379,1.44,4.379,3.466c0,2.028-1.304,3.019-4.379,3.019h-2.306v4.401
	l7.055,6.544h5.733v-0.327L189.703,25.669z"/>
<path fill="#FFFFFF" d="M261.214,16.79c-0.893-1.447-3.3-2.822-6.069-2.822c-3.584,0-5.304,1.011-5.304,2.889
	c0,2.216,2.637,1.362,5.707,1.738c5.336,0.65,10.297,1.048,10.297,7.119c0,5.677-5.036,7.113-10.74,7.113
	c-5.208,0-9.233-1.589-11.138-6.238l4.019-2.059c1.134,2.799,4.086,4.025,7.187,4.025c3.034,0,5.901-0.082,5.901-2.842
	c0-2.392-2.521-2.403-5.929-2.766c-5.221-0.613-10.052-0.538-10.052-6.225c0-5.239,5.186-6.403,9.908-6.439
	c3.979,0,8.108,0.636,10.043,4.562L261.214,16.79z"/>
<path fill-rule="evenodd" clip-rule="evenodd" fill="#FFFFFF" d="M278.665,10.68v4.607H300V10.68H278.665z"/>
<path fill-rule="evenodd" clip-rule="evenodd" fill="#FFFFFF" d="M287.014,14.366v18.43h4.638v-18.43H287.014z"/>
<path fill-rule="evenodd" clip-rule="evenodd" fill="#FFFFFF" d="M211.073,10.68v4.607h19.479V10.68H211.073z"/>
<path fill-rule="evenodd" clip-rule="evenodd" fill="#FFFFFF" d="M211.073,19.895v4.608h19.479v-4.608H211.073z"/>
<path fill-rule="evenodd" clip-rule="evenodd" fill="#FFFFFF" d="M211.073,28.189v4.606h19.479v-4.606H211.073z"/>
<path fill-rule="evenodd" clip-rule="evenodd" fill="#FFFFFF" d="M211.073,14.366v18.43h4.638v-18.43H211.073z"/>
<path fill-rule="evenodd" clip-rule="evenodd" fill="#FFFFFF" d="M175.34,10.68v22.116h4.64V10.68H175.34z"/>
<path fill-rule="evenodd" clip-rule="evenodd" fill="#FFFFFF" d="M119.59,10.68v22.116h4.638V10.68H119.59z"/>
<path fill-rule="evenodd" clip-rule="evenodd" fill="#FFFFFF" d="M97.327,10.68v22.116h4.638V10.68H97.327z"/>
</svg>
